<svg t="1712295585398" class="icon" viewBox="0 0 1024 1024" version="1.1" xmlns="http://www.w3.org/2000/svg" p-id="11921" width="200" height="200"><path d="M768.47 384.042c-27.87 0-127.359-0.202-127.359-0.202l0 63.882 126.855 0 0 127.876 64.862 0c0 0 0-70.289 0-124.876C832.829 402.41 803.6 384.042 768.47 384.042zM712.395 178.09c-101.314 0-119.218 58.591-165.123 79.616 3.613-32.853 10.772-69.609 24.205-93.007 39.526-68.851 105.686-92.922 106.349-93.157l-0.146 0.051-20.772-60.535c-3.611 1.239-89.045 31.39-140.934 121.778-16.203 28.224-27.16 68.647-32.566 120.146-0.241 2.293-0.465 4.556-0.673 6.784-45.82-18.931-49.878-81.676-171.134-81.676-142.799 0-275.597 141.784-275.597 329.471 0 196.597 216.757 514.439 333.197 514.439 84.787 0 117.548-47.969 142.798-47.969 25.25 0 40.162 47.969 142.799 47.969 130.437 0 333.203-324.084 333.203-514.439C987.998 319.871 835.857 178.09 712.395 178.09zM719.257 920.652c-30.868 27.567-54.017 37.348-64.461 37.348-21.911 0-40.078-2.742-53.998-8.15-10.59-4.114-17.651-9.26-25.826-15.218-13.442-9.796-33.755-24.601-62.974-24.601-26.817 0-46.953 12.221-64.719 23.004-20.221 12.273-41.13 24.964-78.08 24.964-0.179 0-18.952-0.994-58.493-36.415-31.864-28.544-66.803-70.583-98.381-118.374-33.038-50-61.02-103.72-80.919-155.352-20.544-53.305-31.403-101.819-31.403-140.299 0-37.875 6.394-74.365 19.005-108.455 11.78-31.843 28.471-60.357 49.609-84.749 20.127-23.225 43.087-41.363 68.242-53.909 24.424-12.182 49.571-18.358 74.741-18.358 26.035 0 46.323 3.577 60.299 10.633 10.921 5.513 18.724 13.469 28.604 23.543 20.64 21.044 51.831 52.847 111.495 52.847 58.617 0 92.383-30.196 117.037-52.244 23.419-20.943 38.89-34.778 83.361-34.778 43.25 0 95.634 28.112 136.71 73.366 22.902 25.232 41.049 54.039 53.935 85.621 13.907 34.085 20.958 69.911 20.958 106.483 0 76.405-42.241 191.859-107.613 294.135C784.997 850.802 751.411 891.937 719.257 920.652z" fill="#272636" p-id="11922"></path></svg>